# xmcd
#
# Track frame offsets:
#	150
#	13572
#	30070
#	44165
#	58902
#	70985
#	91362
#	106937
#	128847
#	143090
#	164825
#	182317
#	204755
#	222892
#	249212
#	271617
#
# Disc length: 3765 seconds
# Revision: 7
# Processed by: cddbd v1.5.2PL0 Copyright (c) Steve Scherf et al.
# Submitted via: dBpowerAMP V12.0
#
DISCID=d50eb310
DTITLE=Charlie Musselwhite - In my Time
DYEAR=1993
DGENRE=Blues
TTITLE0=Stingaree
TTITLE1=Brownsville Blues
TTITLE2=Ain't it Time
TTITLE3=The Big Boat
TTITLE4=Leaving Blues
TTITLE5=When it Rains it Pours
TTITLE6=Casual Friend
TTITLE7=If I Should Have Bad Luck
TTITLE8=Watson's Excellent Adventure
TTITLE9=Please Don't Think I'm Nosy
TTITLE10=Midnight Mama
TTITLE11=Hear me Talkin
TTITLE12=Blues, Why do You Worry Me?
TTITLE13=Movin' And Groovin'
TTITLE14=Revelation
TTITLE15=Bedside of a Neighbor
EXTD=
EXTT0=
EXTT1=
EXTT2=
EXTT3=
EXTT4=
EXTT5=
EXTT6=
EXTT7=
EXTT8=
EXTT9=
EXTT10=
EXTT11=
EXTT12=
EXTT13=
EXTT14=
EXTT15=
PLAYORDER=
